<svg xmlns="http://www.w3.org/2000/svg" xmlns:xlink="http://www.w3.org/1999/xlink" viewBox="0 0 42 81" fill="#fff" fill-rule="evenodd" stroke="#000" stroke-linecap="round" stroke-linejoin="round"><use xlink:href="#A" x=".5" y=".5"/><symbol id="A" overflow="visible"><g stroke="none"><path d="M9.687 5.92c0-1.415 2.15-2.554 4.82-2.554s4.82 1.14 4.82 2.554-2.15 2.554-4.82 2.554-4.82-1.14-4.82-2.554z" fill="#b8d432"/><path d="M31.72 35.61L8.138 38.325 5.04 15.34c-.172-1.915 1.205-3.512 3.27-3.67l13.598-1.596c2.066-.16 3.787.958 4.13 2.873l2.238 16.6c.172.958 1.033 1.596 2.066 1.437s1.72-.958 1.55-1.916L28.45 2.888C28.277.973 26.383-.144 24.318.015l-21 2.554C1.253 2.73-.296 4.325.048 6.24L4.35 38.325c0 .32.172.48.172.798-1.033.64-1.55 1.756-1.377 2.873l4.82 35.117c.172 1.756 2.066 3.033 3.787 2.873l25.475-3.192c1.893-.16 2.926-1.915 2.754-3.67l-4.82-35.117C35 36.41 33.44 35.452 31.72 35.61zM12.958 4.804l2.926-.32c.688-.16 1.377.32 1.377.958.172.64-.344 1.277-1.033 1.277l-2.926.32c-.688.16-1.377-.32-1.377-.958-.172-.64.344-1.117 1.033-1.277zm10.5 50.44l.69 5.587-4.475.48-.86-5.746c-1.377-.64-2.754-1.916-3.098-3.67-.344-2.554 1.55-4.79 4.303-5.108s5.164 1.437 5.508 3.99c.344 1.915-.172 3.512-2.065 4.47z" fill="#3e3e3e"/><path d="M4.35 38.166c0 .32.172.48.172.798-1.033.64-1.55 1.756-1.377 2.873l2.926 21.55 11.36-26.018-9.295.958L5.04 15.34c-.172-1.915 1.205-3.512 3.27-3.67l13.598-1.596c2.066-.16 3.787.958 4.13 2.873l.517 3.512 2.926-6.545-.86-6.864C28.45 1.133 26.556.016 24.5.175L3.32 2.57C1.253 2.73-.296 4.325.048 6.24L4.35 38.166zm8.606-33.36l2.926-.32c.688-.16 1.377.32 1.377.958.172.64-.344 1.277-1.033 1.277l-2.926.32c-.688.16-1.377-.32-1.377-.958-.172-.64.344-1.117 1.033-1.277z" opacity=".15"/></g></symbol></svg>