<svg xmlns="http://www.w3.org/2000/svg" xmlns:xlink="http://www.w3.org/1999/xlink" viewBox="0 0 66.791 66.791" fill="#fff" fill-rule="evenodd" stroke="#000" stroke-linecap="round" stroke-linejoin="round"><use xlink:href="#A" x="1.396" y="1.396"/><symbol id="A" overflow="visible"><path d="M23.424 32c0-4.22 3.4-7.62 7.62-7.62s7.62 3.398 7.62 7.62-3.4 7.62-7.62 7.62-7.62-3.4-7.62-7.62zm7.62-32C16.133.01 3.606 10.2.053 24a1.56 1.56 0 0 0-.053.38c0 .837.68 1.524 1.524 1.524h12.904c.597.002 1.14-.348 1.382-.893s.02-.036.028-.056c2.66-5.74 8.47-9.722 15.212-9.722 9.26 0 16.764 7.503 16.764 16.76s-7.503 16.76-16.76 16.76c-6.74 0-12.55-3.983-15.212-9.722-.008-.02-.028-.056-.028-.056a1.52 1.52 0 0 0-1.382-.893H1.527a1.52 1.52 0 0 0-1.524 1.524 1.53 1.53 0 0 0 .053.38c3.553 13.8 16.083 24 31 24 17.674-.03 32.027-14.327 32.027-32s-14.327-32-32-32z" stroke="none" fill="#161616" fill-rule="nonzero"/></symbol></svg>