<svg xmlns="http://www.w3.org/2000/svg" xmlns:xlink="http://www.w3.org/1999/xlink" viewBox="0 0 34 36" fill="#fff" fill-rule="evenodd" stroke="#000" stroke-linecap="round" stroke-linejoin="round"><use xlink:href="#A" x=".5" y=".5"/><symbol id="A" overflow="visible"><g stroke="none" fill="#5c2d90" fill-rule="nonzero"><path d="M30.388 18.374l.858 10.954-15.194 2.726L14.74 21.1l2.17-.303c.353.15.606.202 1 .303.656.15 1.413.353 2.524-.252.252-.15.808-.606 1-.9zM6.915 31.397c-.252-.404-.707-.858-1.413-1.413-1-.808-.656-2.22-.05-3.08.757-1.464 4.745-3.382 4.543-5.754-.1-.858-.202-1.97-1-2.776a2.1 2.1 0 0 0 0 .606c.03.2-.353-.404-.505-1-.15-.202-.303-.303-.454-.606-.1.353-.1.707-.1.707s-.252-.656-.303-1.16c-.15.252-.202.707-.202.707s-.353-1-.252-1.565c-.15-.454-.656-1.413-.505-3.533.858.606 2.776.454 3.533-.656.252-.353.404-1.363-.1-3.332C9.742 7.27 8.884 5.4 8.53 4.694l-.05.05a32.84 32.84 0 0 1 .707 2.372c.404 1.767.555 2.372.353 3.18-.15.707-.555 1.16-1.615 1.666-1 .505-2.423-.757-2.473-.808-1-.808-1.767-2.12-1.868-2.726-.1-.707.404-1.1.656-1.666-.353.1-.757.303-.757.303s.454-.505 1.06-.9c.252-.15.404-.252.656-.454h-.656s.606-.353 1.262-.555h-.9L7.32 4.1c.757-.303 1.464-.202 1.868.353.555.757 1.1 1.16 2.272 1.464.707-.303.96-.505 1.868-.757.808-.9 1.464-1 1.464-1s-.454.404-.505.858c.454-.353.96-.656.96-.656s-.202.252-.353.606l.05.05c.555-.303 1.16-.555 1.16-.555s-.202.202-.404.505l1.514.05c1.868.05 2.272-1.97 2.978-2.272.9-.303 1.312-.505 2.827 1 1.312 1.312 2.322 3.584 1.817 4.1-.404.404-1.262-.15-2.22-1.312-.505-.606-.858-1.363-1.06-2.272-.1-.757-.656-1.2-.656-1.2s.353.757.353 1.413c0 .353.05 1.666.606 2.423-.05.1-.1.555-.15.606-.656-.808-2.12-1.363-2.322-1.565.808.656 2.625 2.12 3.332 3.533.656 1.363.252 2.574.606 2.877.1.1 1.413 1.716 1.666 2.574.454 1.464.05 2.978-.555 3.887l-1.615.252c-.252-.05-.404-.1-.606-.202.1-.202.353-.707.353-.808l-.1-.15c-.505.707-1.363 1.413-2.07 1.817-.9.505-1.97.454-2.675.202-1.97-.606-3.836-1.918-4.24-2.272 0 0 0 .252.05.353.505.555 1.615 1.565 2.726 2.272l-2.322.252 1.1 8.58c-.505.05-.555.1-1.1.202-.454-1.666-1.363-2.726-2.372-3.382-.858-.555-2.07-.707-3.23-.454l-.05.1c.808-.1 1.767.05 2.726.656s1.716 2.17 2.02 3.08c.353 1.2.606 2.473-.353 3.836-.707.96-2.726 1.514-4.34.353.454.707 1 1.262 1.817 1.363 1.16.15 2.272-.05 3.08-.808.656-.656 1-2.07.9-3.584l1.06-.15.353 2.675 17.213-2.07-1.514-13.73-.858.15L28.672 0 0 3.332l3.533 28.57zM20.547 16.38c.757.555 1.413.9 2.07.858.404-.05.808-.707 1.06-1.312.202-.404.202-.858-.1-1-.15-.05-.757-.05-1.2 0-.858.1-1.716.404-1.918.555-.303.202-.15.707.1.9m.2-5.916v.05l.05.1c.202.404.404.808.808 1 .1 0 .202-.05.303-.05a2.09 2.09 0 0 1 .707.101v-.303c-.05-.505.1-1.413-.9-1.918-.404-.202-.9-.1-1.1.1h.1c.252.1.1.202.05.303-.05.202-.1.252 0 .606"/><path d="M16.215 10.575c.252-.202-1.16-.505-2.272.202-.808.555-.808 1.716-.05 2.372.1.05.15.1.202.15.202-.1.505-.202.757-.303.505-.15.9-.252 1.262-.303.15-.202.353-.505.303-1.06-.05-.757-.656-.606-.202-1.06M27.32 24.76l-2.877-1.918-2.423 4.038-2.827-.858-2.473 3.786.1 1.2 13.528-2.473-.808-8.43z"/></g></symbol></svg>