<svg xmlns="http://www.w3.org/2000/svg" xmlns:xlink="http://www.w3.org/1999/xlink" viewBox="0 0 81 81" fill="#fff" fill-rule="evenodd" stroke="#000" stroke-linecap="round" stroke-linejoin="round"><use xlink:href="#A" x=".5" y=".5"/><symbol id="A" overflow="visible"><path d="M40 0C17.917 0 0 17.917 0 40c0 22.112 17.917 40 40 40s40-17.888 40-40C80 17.917 62.083 0 40 0zm10.576 74.725v-6.832c0-2.637-1.437-4.973-3.656-6.443.15-.03.33-.06.5-.06 3.805-.48 7.25-1.677 7.25-1.677s4.944-1.528 7.61-4.646c2.816-3.296 3.536-8.178 3.536-8.178s.928-5.333 0-9.47c-.928-4.045-3.896-6.86-3.896-6.86s1.018-2.637.928-5.394c-.09-2.637-1.317-5.392-1.317-5.392s-2.336-.21-4.824.75c-3.027 1.168-6.323 3.536-6.323 3.536s-2.307-.75-5.003-1.11c-2.485-.357-5.392-.387-5.392-.387s-2.907.03-5.392.39c-2.696.36-5.003 1.11-5.003 1.11s-3.27-2.368-6.326-3.536c-2.456-.96-4.824-.75-4.824-.75s-1.198 2.755-1.288 5.392c-.1 2.757.928 5.395.928 5.395S15.1 33.38 14.2 37.424c-.96 4.136 0 9.47 0 9.47s.72 4.883 3.507 8.18c2.667 3.117 7.64 4.645 7.64 4.645s3.416 1.197 7.22 1.677c.18 0 .36.03.54.06-2.216 1.47-3.686 3.805-3.686 6.443v6.832C14.53 70.203 3.715 56.36 3.715 40.003 3.715 19.957 19.955 3.717 40 3.717S76.315 19.954 76.315 40c0 16.36-10.845 30.203-25.74 34.725z" fill="#1e1e1e" stroke="none"/></symbol></svg>