<svg xmlns="http://www.w3.org/2000/svg" xmlns:xlink="http://www.w3.org/1999/xlink" viewBox="0 0 66 53" fill="#fff" fill-rule="evenodd" stroke="#000" stroke-linecap="round" stroke-linejoin="round"><use xlink:href="#A" x=".5" y=".5"/><symbol id="A" overflow="visible"><path d="M30.47 24.102l-8.773 2.34C15.668 21.002 8.075 17.594 0 16.734A70.43 70.43 0 0 1 40.898 3.497l-5.026 4.62S57.257 7.367 62.627 0c-.14.763-.37 1.507-.687 2.217a24.04 24.04 0 0 1-7.774 10.989 44.55 44.55 0 0 1-11.083 6.244c-3.925 1.708-7.95 3.178-12.05 4.402h-.562M64 23.134a117.73 117.73 0 0 0-40.242 5.339 38.71 38.71 0 0 1 6.775 9.647c10.833-5.996 25.725-13.676 33.437-14.726M32 41.18a38.16 38.16 0 0 1 2.435 10.21l18.732-19.325z" stroke="none" fill="#f99d1e" fill-rule="nonzero"/></symbol></svg>