<svg xmlns="http://www.w3.org/2000/svg" xmlns:xlink="http://www.w3.org/1999/xlink" viewBox="0 0 65 59" fill="#fff" fill-rule="evenodd" stroke="#000" stroke-linecap="round" stroke-linejoin="round"><use xlink:href="#A" x=".5" y=".5"/><symbol id="A" overflow="visible"><path d="M38.065 3.956C36.62 1.442 34.4 0 32.008 0s-4.612 1.442-6.057 3.956l-7.632 13.26c1.894 1.067 3.704 2.275 5.417 3.613C32.85 27.964 38.99 38.742 39.97 50.965h-4.793c-.944-10.455-6.148-19.7-13.854-25.944-1.685-1.368-3.487-2.6-5.392-3.656L7 36.905a19.95 19.95 0 0 1 5.179 4.014c2.543 2.748 4.314 6.212 4.986 10.05l-8-.004c-.88 0-1.594-.716-1.594-1.598a1.62 1.62 0 0 1 .192-.763l2.022-3.44c-1.5-1.608-3.235-2.97-5.18-4.014l-3.4 5.808C-.25 49.47-.39 52.11.8 54.197s3.55 3.286 6.443 3.286h16.5c.117-1 .184-2.036.184-3.075-.002-1.15-.08-2.298-.23-3.438-.793-6.228-3.797-11.796-8.17-15.878l2.5-4.343c5.804 5.033 9.745 12.17 10.626 20.22.128 1.142.192 2.29.194 3.438a31.86 31.86 0 0 1-.153 3.075h17.8a49.6 49.6 0 0 0 .105-3.075 50.18 50.18 0 0 0-.132-3.438C45.46 36.342 38.045 23.456 27 15.138l3.632-6.3c.28-.463.788-.773 1.365-.773a1.59 1.59 0 0 1 1.386.81l22.863 39.74a1.6 1.6 0 0 1 .193.763c0 .884-.714 1.598-1.594 1.598l-3.588.004a49.83 49.83 0 0 1 .133 3.437c0 1.035-.043 2.06-.107 3.075h5.452c2.895 0 5.243-1.196 6.443-3.286s1.06-4.727-.385-7.24z" stroke="none" fill="#465264" fill-rule="nonzero"/></symbol></svg>