<svg xmlns="http://www.w3.org/2000/svg" xmlns:xlink="http://www.w3.org/1999/xlink" viewBox="0 0 143.125 143.125" fill="#fff" fill-rule="evenodd" stroke="#000" stroke-linecap="round" stroke-linejoin="round"><use xlink:href="#A" x="2.083" y="2.083"/><symbol id="A" overflow="visible"><g stroke="none" fill-rule="nonzero"><path d="M14.844 76.894c0-34.452 27.736-62.187 62.187-62.187s62.188 27.736 62.188 62.188-27.736 62.187-62.187 62.187-62.187-27.736-62.187-62.187z" fill="#ea5a47"/><path d="M27.344 76.894c0-27.527 22.16-49.687 49.687-49.687s49.688 22.16 49.688 49.688-22.16 49.688-49.687 49.688-49.687-22.16-49.687-49.687z"/><path d="M44 76.894a32.95 32.95 0 0 1 33.021-33.021 32.95 32.95 0 0 1 33.021 33.021 32.95 32.95 0 0 1-33.021 33.021A32.95 32.95 0 0 1 44.01 76.894z" fill="#ea5a47"/><path d="M54.323 76.893a22.66 22.66 0 0 1 22.708-22.708A22.66 22.66 0 0 1 99.74 76.893a22.66 22.66 0 0 1-22.708 22.708 22.66 22.66 0 0 1-22.708-22.708z"/><path d="M64.74 76.894c0-6.8 5.482-12.292 12.292-12.292s12.292 5.482 12.292 12.292-5.482 12.292-12.292 12.292S64.74 83.703 64.74 76.894z" fill="#ea5a47"/></g><g fill="none" stroke-width="4.167"><path d="M18.652 18.654H0m18.652 0V0m8.417 27.083H8.42m18.658-.004V8.43"/><path d="M77.03 76.912l-66.685-66.55m30.192 18.4a60.5 60.5 0 0 1 36.5-12.271c33.367 0 60.417 27.05 60.417 60.417s-27.05 60.417-60.417 60.417-60.417-27.05-60.417-60.417c-.02-13.11 4.243-25.87 12.142-36.333m20.708-2.87c7.796-5.492 17.304-8.72 27.567-8.72 26.465 0 47.917 21.454 47.917 47.917S103.5 124.8 77.036 124.8 29.12 103.358 29.12 76.893a47.7 47.7 0 0 1 8.535-27.304m23.862.173c4.723-2.707 10.073-4.127 15.517-4.12 17.258 0 31.25 13.992 31.25 31.25s-13.992 31.25-31.25 31.25-31.25-13.992-31.25-31.25c0-5.45 1.52-10.68 3.975-15.142"/><path d="M78.26 66.517a10.42 10.42 0 0 1-1.298 20.754c-5.17 0-9.463-3.77-10.277-8.708"/><path d="M69.302 57.54a20.72 20.72 0 0 1 7.729-1.479c11.506 0 20.833 9.327 20.833 20.833S88.538 97.73 77.03 97.73s-20.833-9.327-20.833-20.833c.01-2.56.494-5.096 1.43-7.48"/></g></symbol></svg>